<svg id="design" xmlns="http://www.w3.org/2000/svg" viewBox="0 0 128 128"><defs><style>.cls-1{fill:#a9e7ff;}.cls-2{fill:#fff;}.cls-3,.cls-9{fill:none;}.cls-3{stroke:#139ff2;stroke-linecap:round;stroke-linejoin:round;stroke-width:4px;}.cls-4{fill:#39bdff;}.cls-5{fill:#139ff2;}.cls-6{fill:#6fd7e8;}.cls-7{fill:#73d0ff;}.cls-8{fill:#d0e3ea;}</style></defs><title>03. platinum</title><rect class="cls-1" x="46" y="55.5" width="36" height="17" transform="translate(64 -26.51) rotate(45)"/><rect class="cls-2" x="47.41" y="60.59" width="36" height="4" transform="translate(63.41 -27.92) rotate(45)"/><rect class="cls-3" x="46" y="55.5" width="36" height="17" transform="translate(64 -26.51) rotate(45)"/><rect class="cls-2" x="41.88" y="19.38" width="11" height="56" rx="5.5" transform="translate(47.38 -19.63) rotate(45)"/><rect class="cls-1" x="46.13" y="26.14" width="11" height="34" rx="5.5" transform="translate(45.63 -23.87) rotate(45)"/><rect class="cls-4" x="48.95" y="32.31" width="11" height="16" rx="5.5" transform="translate(44.45 -26.7) rotate(45)"/><path class="cls-3" d="M37.47,65.08l-2.11,2.1a5.5,5.5,0,0,1-7.78,0h0a5.52,5.52,0,0,1,0-7.78L59.4,27.58a5.52,5.52,0,0,1,7.78,0h0a5.5,5.5,0,0,1,0,7.78"/><path class="cls-3" d="M67.18,35.36,42.25,60.29"/><rect class="cls-2" x="34.1" y="15.6" width="11" height="48" rx="5.5" transform="translate(39.6 -16.4) rotate(45)"/><rect class="cls-1" x="38.7" y="21.51" width="11" height="27" rx="5.5" transform="translate(37.7 -21) rotate(45)"/><rect class="cls-4" x="39.05" y="26.66" width="11" height="16" rx="5.5" transform="translate(37.55 -21.35) rotate(45)"/><rect class="cls-1" x="28.09" y="17.56" width="11" height="25" rx="5.5" transform="translate(31.09 -14.95) rotate(45)"/><rect class="cls-4" x="30.57" y="21.58" width="11" height="12" rx="5.5" transform="translate(30.07 -17.43) rotate(45)"/><path class="cls-3" d="M22.63,48.8,48.8,22.63a5.52,5.52,0,0,1,7.78,0h0a5.52,5.52,0,0,1,0,7.78L30.41,56.58a5.52,5.52,0,0,1-7.78,0"/><rect class="cls-3" x="26.33" y="12.83" width="11" height="38" rx="5.5" transform="translate(31.83 -13.18) rotate(45)"/><rect class="cls-2" x="75.12" y="52.62" width="11" height="56" rx="5.5" transform="translate(80.62 194.63) rotate(-135)"/><rect class="cls-1" x="79.36" y="59.37" width="11" height="34" rx="5.5" transform="translate(90.86 190.38) rotate(-135)"/><rect class="cls-4" x="82.19" y="65.55" width="11" height="16" rx="5.5" transform="translate(97.69 187.56) rotate(-135)"/><path class="cls-3" d="M62.59,90.87l-1.77,1.77a5.5,5.5,0,0,0,0,7.78h0a5.52,5.52,0,0,0,7.78,0L100.42,68.6"/><path class="cls-3" d="M100.42,60.82a5.5,5.5,0,0,0-7.78,0L68.07,85.38"/><path class="cls-3" d="M100.42,60.82h0"/><rect class="cls-2" x="82.9" y="64.4" width="11" height="48" rx="5.5" transform="translate(88.4 213.4) rotate(-135)"/><rect class="cls-1" x="87.49" y="70.3" width="11" height="27" rx="5.5" transform="translate(99.49 208.81) rotate(-135)"/><rect class="cls-4" x="87.84" y="75.45" width="11" height="16" rx="5.5" transform="translate(100.34 208.46) rotate(-135)"/><rect class="cls-1" x="92.44" y="81.91" width="11" height="25" rx="5.5" transform="translate(100.44 230.42) rotate(-135)"/><rect class="cls-4" x="94.92" y="85.93" width="11" height="12" rx="5.5" transform="translate(106.42 227.94) rotate(-135)"/><rect class="cls-3" x="82.9" y="64.4" width="11" height="48" rx="5.5" transform="translate(88.4 213.4) rotate(-135)"/><path class="cls-3" d="M94.85,105.28l14.76-14.76a5.5,5.5,0,0,0,0-7.78h0a5.5,5.5,0,0,0-7.78,0L82.74,101.83a5.5,5.5,0,0,0,0,7.78h0a5.5,5.5,0,0,0,7.78,0"/><circle class="cls-5" cx="56.93" cy="51.27" r="1"/><circle class="cls-5" cx="59.76" cy="54.1" r="1"/><circle class="cls-5" cx="62.59" cy="56.93" r="1"/><circle class="cls-5" cx="65.41" cy="59.76" r="1"/><circle class="cls-5" cx="68.24" cy="62.59" r="1"/><circle class="cls-5" cx="71.07" cy="65.41" r="1"/><circle class="cls-5" cx="73.9" cy="68.24" r="1"/><circle class="cls-5" cx="76.73" cy="71.07" r="1"/><circle class="cls-5" cx="55.51" cy="55.51" r="1"/><circle class="cls-5" cx="58.34" cy="58.34" r="1"/><circle class="cls-5" cx="61.17" cy="61.17" r="1"/><circle class="cls-5" cx="64" cy="64" r="1"/><circle class="cls-5" cx="66.83" cy="66.83" r="1"/><circle class="cls-5" cx="69.66" cy="69.66" r="1"/><circle class="cls-5" cx="72.49" cy="72.49" r="1"/><circle class="cls-5" cx="75.31" cy="75.31" r="1"/><circle class="cls-5" cx="52.69" cy="52.69" r="1"/><circle class="cls-5" cx="51.27" cy="56.93" r="1"/><circle class="cls-5" cx="54.1" cy="59.76" r="1"/><circle class="cls-5" cx="56.93" cy="62.59" r="1"/><circle class="cls-5" cx="59.76" cy="65.41" r="1"/><circle class="cls-5" cx="62.59" cy="68.24" r="1"/><circle class="cls-5" cx="65.41" cy="71.07" r="1"/><circle class="cls-5" cx="68.24" cy="73.9" r="1"/><circle class="cls-5" cx="71.07" cy="76.73" r="1"/><circle class="cls-6" cx="109" cy="108" r="3"/><circle class="cls-5" cx="23" cy="22" r="3"/><circle class="cls-7" cx="29" cy="86" r="3"/><rect class="cls-7" x="103" y="19" width="6" height="6" rx="1" transform="translate(46.6 -68.51) rotate(45)"/><rect class="cls-6" x="19.83" y="105.83" width="4.7" height="4.7" rx="1" transform="translate(82.99 16) rotate(45)"/><rect class="cls-6" x="85.83" y="23.83" width="4.7" height="4.7" rx="1" transform="translate(44.34 -54.68) rotate(45)"/><circle class="cls-8" cx="107" cy="40" r="2"/><circle class="cls-8" cx="40" cy="92" r="2"/><rect class="cls-9" width="128" height="128"/></svg>