<svg id="design" xmlns="http://www.w3.org/2000/svg" viewBox="0 0 128 128"><defs><style>.cls-1{fill:#fff;}.cls-2{fill:#a9e7ff;}.cls-3{fill:#73d0ff;}.cls-4,.cls-5,.cls-9{fill:none;}.cls-4{stroke:#139ff2;}.cls-4,.cls-5{stroke-linecap:round;stroke-linejoin:round;stroke-width:4px;}.cls-5{stroke:#39bdff;}.cls-6{fill:#6fd7e8;}.cls-7{fill:#139ff2;}.cls-8{fill:#d0e3ea;}</style></defs><title>01. regular</title><path class="cls-1" d="M105,86.19,86.19,105A7.24,7.24,0,0,1,76,105l-8.54-8.53a4.86,4.86,0,0,1-1.36-4.1l.28-2a4.79,4.79,0,0,1,1.37-2.73l4-4A53.22,53.22,0,0,1,44.37,56.32l-4,4a4.79,4.79,0,0,1-2.73,1.37l-2,.28a4.86,4.86,0,0,1-4.1-1.36L23,52.05a7.24,7.24,0,0,1,0-10.24L41.81,23a7.24,7.24,0,0,1,10.24,0l8.54,8.53A4.86,4.86,0,0,1,62,35.66l-.28,2a4.79,4.79,0,0,1-1.37,2.73l-4,4s9.39,4.27,16.22,11.09S83.63,71.68,83.63,71.68l4-4a4.79,4.79,0,0,1,2.73-1.37l2-.28a4.86,4.86,0,0,1,4.1,1.36L105,76A7.24,7.24,0,0,1,105,86.19Z"/><path class="cls-2" d="M31,35H48.15a1,1,0,0,1,1,1v6.45a1,1,0,0,1-1,1H31a0,0,0,0,1,0,0V35a0,0,0,0,1,0,0Z" transform="translate(39.5 -16.86) rotate(45)"/><path class="cls-2" d="M25.93,42.56H43a1,1,0,0,1,1,1v1.62a1,1,0,0,1-1,1H25.93a0,0,0,0,1,0,0V42.56a0,0,0,0,1,0,0Z" transform="translate(41.62 -11.74) rotate(45)"/><path class="cls-2" d="M79.67,86.16H98a0,0,0,0,1,0,0v6a0,0,0,0,1,0,0H79.67a1,1,0,0,1-1-1v-4A1,1,0,0,1,79.67,86.16Z" transform="translate(88.93 -36.34) rotate(45)"/><path class="cls-2" d="M75,92.67H93.29a0,0,0,0,1,0,0v2.41a0,0,0,0,1,0,0H75a1,1,0,0,1-1-1v-.41A1,1,0,0,1,75,92.67Z" transform="translate(90.87 -31.64) rotate(45)"/><path class="cls-3" d="M70.83,84.49A78.57,78.57,0,0,1,43.51,57.17L57.17,43.51A78.51,78.51,0,0,1,84.49,70.83Z"/><rect class="cls-2" x="46.22" y="29.32" width="4.83" height="38.63" transform="translate(48.64 -20.15) rotate(45)"/><rect class="cls-3" x="51.34" y="41.1" width="4.83" height="4.83" transform="translate(46.51 -25.27) rotate(45)"/><rect class="cls-3" x="54.76" y="38.89" width="4.83" height="2.41" transform="translate(45.1 -28.68) rotate(45)"/><rect class="cls-2" x="76.95" y="60.05" width="4.83" height="38.63" transform="translate(79.36 -32.87) rotate(45)"/><rect class="cls-3" x="69.27" y="84.63" width="4.83" height="4.83" transform="translate(82.55 -25.19) rotate(45)"/><rect class="cls-3" x="72.68" y="82.42" width="4.83" height="2.41" transform="translate(81.13 -28.61) rotate(45)"/><path class="cls-4" d="M105,86.19,86.19,105A7.24,7.24,0,0,1,76,105l-8.54-8.53a4.86,4.86,0,0,1-1.36-4.1l.28-2a4.79,4.79,0,0,1,1.37-2.73l4-4A53.22,53.22,0,0,1,44.37,56.32l-4,4a4.79,4.79,0,0,1-2.73,1.37l-2,.28a4.86,4.86,0,0,1-4.1-1.36L23,52.05a7.24,7.24,0,0,1,0-10.24L41.81,23a7.24,7.24,0,0,1,10.24,0l8.54,8.53A4.86,4.86,0,0,1,62,35.66l-.28,2a4.79,4.79,0,0,1-1.37,2.73l-4,4s9.39,4.27,16.22,11.09S83.63,71.68,83.63,71.68l4-4a4.79,4.79,0,0,1,2.73-1.37l2-.28a4.86,4.86,0,0,1,4.1,1.36L105,76A7.24,7.24,0,0,1,105,86.19Z"/><line class="cls-4" x1="56.32" y1="44.37" x2="51.2" y2="49.49"/><line class="cls-4" x1="77.66" y1="77.66" x2="83.63" y2="71.68"/><path class="cls-5" d="M57.17,53.76C65.71,58.88,70,63.15,75.1,71.68"/><circle class="cls-6" cx="107" cy="108" r="3"/><circle class="cls-7" cx="23" cy="22" r="3"/><circle class="cls-3" cx="26" cy="84" r="3"/><rect class="cls-3" x="90" y="35" width="6" height="6" rx="1" transform="translate(54.11 -54.63) rotate(45)"/><rect class="cls-6" x="44.83" y="100.83" width="4.7" height="4.7" rx="1" transform="translate(86.77 -3.14) rotate(45)"/><rect class="cls-6" x="74.83" y="22.83" width="4.7" height="4.7" rx="1" transform="translate(40.41 -47.2) rotate(45)"/><circle class="cls-8" cx="104" cy="54" r="2"/><circle class="cls-8" cx="36" cy="82" r="2"/><rect class="cls-9" width="128" height="128"/></svg>