<svg id="design" xmlns="http://www.w3.org/2000/svg" viewBox="0 0 128 128"><defs><style>.cls-1{fill:#73d0ff;}.cls-2{fill:#39bdff;}.cls-10,.cls-3,.cls-4{fill:none;}.cls-3{stroke:#a9e7ff;}.cls-3,.cls-4{stroke-linecap:round;stroke-linejoin:round;stroke-width:4px;}.cls-4{stroke:#139ff2;}.cls-5{fill:#a9e7ff;}.cls-6{fill:#fff;}.cls-7{fill:#6fd7e8;}.cls-8{fill:#139ff2;}.cls-9{fill:#d0e3ea;}</style></defs><title>02. premium</title><path class="cls-1" d="M85.81,52.41A12.55,12.55,0,0,1,83,47a12.8,12.8,0,0,1-.37-3,11.72,11.72,0,0,1,.24-2.38,8.52,8.52,0,0,1,.2-.84,15.28,15.28,0,0,0-2.84-14.2A21.93,21.93,0,0,0,66,19.12h-.11a21.9,21.9,0,0,0-16,4.74A14.94,14.94,0,0,0,45,40.16a12,12,0,0,1-2.72,12.13,32.5,32.5,0,0,0,12.49,55.39h0a32.5,32.5,0,0,0,31-55.28ZM70.27,38.48A22,22,0,0,0,64,38a22,22,0,0,0-6.27.48,4.35,4.35,0,0,1-5.18-2.84,4.51,4.51,0,0,1-.23-1.4A4.31,4.31,0,0,1,52.94,32c1.94-3.17,5.53-4.92,11.06-5,5.53.09,9.12,1.84,11.06,5a4.31,4.31,0,0,1,.62,2.23,4.51,4.51,0,0,1-.23,1.4A4.35,4.35,0,0,1,70.27,38.48Z"/><path class="cls-2" d="M83.11,40.78a8.52,8.52,0,0,0-.2.84C82,45,77,44,74,43c-1.9-.63,5.29-1,6-6,1-7-5-12-11-14-6.71-2.24-6-4-3.11-3.89H66a21.93,21.93,0,0,1,14.27,7.46A15.28,15.28,0,0,1,83.11,40.78Z"/><path class="cls-2" d="M96.5,76.5a32.54,32.54,0,0,1-41.68,31.19h0C74,108,89.33,97,91,82c2-18-8-24-10-30-.5-1.51.36-3.24,2-5a12.55,12.55,0,0,0,2.77,5.39A32.41,32.41,0,0,1,96.5,76.5Z"/><path class="cls-3" d="M43.61,50.89C52,46,63,47,63,47"/><path class="cls-3" d="M47,39c-2-8,2-14,8-16"/><path class="cls-4" d="M85.81,52.41A12.84,12.84,0,0,1,82.67,44a11.86,11.86,0,0,1,.44-3.22,15.28,15.28,0,0,0-2.84-14.2,22,22,0,0,0-30.38-2.73A14.94,14.94,0,0,0,45,40.16a12,12,0,0,1-2.72,12.13,32.5,32.5,0,1,0,43.49.12ZM75.45,35.64a4.35,4.35,0,0,1-5.18,2.84A22,22,0,0,0,64,38a22,22,0,0,0-6.27.48,4.35,4.35,0,0,1-5.18-2.84,4.51,4.51,0,0,1-.23-1.4A4.31,4.31,0,0,1,52.94,32c1.94-3.17,5.53-4.92,11.06-5,5.53.09,9.12,1.84,11.06,5a4.31,4.31,0,0,1,.62,2.23A4.51,4.51,0,0,1,75.45,35.64Z"/><circle class="cls-5" cx="60.5" cy="75.5" r="23.5"/><path class="cls-3" d="M69,47a10,10,0,0,1,4,1"/><circle class="cls-6" cx="44" cy="63" r="4"/><circle class="cls-7" cx="107" cy="99" r="3"/><circle class="cls-8" cx="23" cy="22" r="3"/><circle class="cls-1" cx="29" cy="48" r="3"/><circle class="cls-1" cx="100" cy="108" r="4"/><rect class="cls-1" x="101" y="40" width="6" height="6" rx="1" transform="translate(60.87 -60.94) rotate(45)"/><rect class="cls-7" x="17.83" y="102.83" width="4.7" height="4.7" rx="1" transform="translate(80.28 16.54) rotate(45)"/><rect class="cls-7" x="90.83" y="16.83" width="4.7" height="4.7" rx="1" transform="translate(40.85 -60.27) rotate(45)"/><circle class="cls-9" cx="110" cy="84" r="2"/><circle class="cls-9" cx="20" cy="57" r="2"/><rect class="cls-10" width="128" height="128"/></svg>